<svg width="760" height="579" viewBox="0 0 760 579" fill="none" xmlns="http://www.w3.org/2000/svg">
<rect width="760" height="579" fill="#1E1E1E"/>
<path fill-rule="evenodd" clip-rule="evenodd" d="M501.804 0.999824C502.144 1.54973 502.872 1.99965 503.421 1.99965C503.971 1.99965 504.143 1.54973 503.803 0.999824C503.463 0.449921 502.736 0 502.186 0C501.636 0 501.464 0.449921 501.804 0.999824ZM464.402 30.5776C464.45 31.7424 464.687 31.9794 465.006 31.1825C465.295 30.4606 465.259 29.5978 464.927 29.2658C464.595 28.9339 464.359 29.5238 464.402 30.5776ZM487.391 32.5773C487.439 33.742 487.675 33.979 487.994 33.1821C488.283 32.4603 488.247 31.5974 487.915 31.2655C487.583 30.9335 487.348 31.5234 487.391 32.5773ZM484.313 35.8867C484.313 36.3776 485.052 37.0625 485.953 37.4094C487.326 37.9363 487.388 37.7893 486.331 36.5166C484.892 34.7819 484.313 34.6009 484.313 35.8867ZM463.403 37.5764C463.451 38.7412 463.688 38.9781 464.006 38.1813C464.295 37.4594 464.259 36.5965 463.927 36.2646C463.596 35.9327 463.36 36.5226 463.403 37.5764ZM302.81 41.1387C300.916 43.2724 300.918 43.2774 303.155 42.1026C304.392 41.4537 305.404 40.4879 305.404 39.958C305.404 38.5372 304.925 38.7552 302.81 41.1387ZM462.482 45.9919C462.482 47.3666 462.709 47.9295 462.986 47.2417C463.264 46.5548 463.264 45.43 462.986 44.7421C462.709 44.0552 462.482 44.6171 462.482 45.9919ZM298.28 46.7418C297.037 48.3275 297.072 48.3625 298.657 47.1197C300.323 45.8129 300.851 44.9921 300.029 44.9921C299.822 44.9921 299.034 45.7799 298.28 46.7418ZM376.868 46.9917C377.862 48.0915 378.902 48.9914 379.177 48.9914C379.451 48.9914 378.862 48.0915 377.867 46.9917C376.873 45.8919 375.833 44.9921 375.558 44.9921C375.283 44.9921 375.873 45.8919 376.868 46.9917ZM294.43 51.4669C293.641 52.4168 293.565 52.9907 294.229 52.9907C295.436 52.9907 296.844 51.094 296.152 50.4001C295.9 50.1492 295.125 50.6291 294.43 51.4669ZM289.284 57.7398C288.042 59.3255 288.077 59.3605 289.662 58.1177C290.623 57.3629 291.411 56.575 291.411 56.3681C291.411 55.5452 290.591 56.0741 289.284 57.7398ZM447.332 60.9303C447.332 62.0621 447.782 62.9889 448.331 62.9889C448.881 62.9889 449.331 62.341 449.331 61.5481C449.331 60.7553 448.881 59.8294 448.331 59.4895C447.782 59.1496 447.332 59.7985 447.332 60.9303ZM284.914 62.9889C284.575 63.5388 284.773 63.9887 285.355 63.9887C285.937 63.9887 286.414 63.5388 286.414 62.9889C286.414 62.439 286.216 61.9891 285.973 61.9891C285.73 61.9891 285.254 62.439 284.914 62.9889ZM499.384 65.5714C499.432 66.7362 499.669 66.9732 499.988 66.1763C500.277 65.4545 500.241 64.5916 499.909 64.2597C499.577 63.9277 499.341 64.5176 499.384 65.5714ZM274.401 76.5095C273.344 77.7823 273.406 77.9293 274.779 77.4023C275.68 77.0554 276.419 76.3705 276.419 75.8796C276.419 74.5938 275.84 74.7748 274.401 76.5095ZM270.403 81.5086C269.346 82.7814 269.408 82.9284 270.781 82.4015C271.682 82.0545 272.421 81.3696 272.421 80.8787C272.421 79.593 271.842 79.7739 270.403 81.5086ZM266.405 86.5077C265.348 87.7805 265.41 87.9275 266.783 87.4006C267.684 87.0536 268.423 86.3688 268.423 85.8778C268.423 84.5921 267.844 84.773 266.405 86.5077ZM258.928 95.9831C258.588 96.533 258.787 96.9829 259.368 96.9829C259.95 96.9829 260.427 96.533 260.427 95.9831C260.427 95.4332 260.229 94.9832 259.986 94.9832C259.743 94.9832 259.267 95.4332 258.928 95.9831ZM254.93 100.982C254.59 101.532 254.789 101.982 255.37 101.982C255.952 101.982 256.429 101.532 256.429 100.982C256.429 100.432 256.231 99.9824 255.988 99.9824C255.745 99.9824 255.269 100.432 254.93 100.982ZM251.931 104.981C251.591 105.531 251.79 105.981 252.372 105.981C252.954 105.981 253.43 105.531 253.43 104.981C253.43 104.432 253.232 103.982 252.99 103.982C252.747 103.982 252.271 104.432 251.931 104.981ZM248.414 109.504C247.357 110.776 247.419 110.923 248.792 110.397C249.693 110.05 250.432 109.365 250.432 108.874C250.432 107.588 249.853 107.769 248.414 109.504ZM227.425 136.499C226.368 137.772 226.43 137.919 227.802 137.392C228.704 137.045 229.443 136.36 229.443 135.869C229.443 134.583 228.864 134.764 227.425 136.499ZM165.288 140.658C166.009 140.947 166.871 140.911 167.203 140.579C167.535 140.247 166.945 140.011 165.892 140.054C164.727 140.102 164.491 140.339 165.288 140.658ZM156.293 141.658C157.013 141.947 157.876 141.911 158.208 141.579C158.54 141.247 157.95 141.011 156.896 141.054C155.732 141.102 155.495 141.339 156.293 141.658ZM198.271 141.658C198.992 141.947 199.855 141.911 200.186 141.579C200.518 141.247 199.929 141.011 198.875 141.054C197.711 141.102 197.474 141.339 198.271 141.658ZM205.268 142.658C205.988 142.947 206.851 142.911 207.183 142.579C207.515 142.247 206.925 142.011 205.872 142.054C204.707 142.102 204.47 142.339 205.268 142.658ZM219.947 144.974C219.608 145.524 220.031 145.974 220.888 145.974C221.744 145.974 222.446 145.524 222.446 144.974C222.446 144.425 222.023 143.975 221.506 143.975C220.988 143.975 220.287 144.425 219.947 144.974ZM623.511 156.665C624.484 156.919 625.833 156.902 626.51 156.628C627.187 156.354 626.391 156.147 624.742 156.167C623.093 156.187 622.539 156.411 623.511 156.665ZM635.998 156.679C637.242 156.918 639.041 156.909 639.996 156.659C640.952 156.409 639.934 156.213 637.735 156.224C635.536 156.235 634.755 156.44 635.998 156.679ZM613.061 157.655C613.781 157.944 614.644 157.908 614.976 157.576C615.308 157.244 614.718 157.008 613.664 157.051C612.5 157.099 612.263 157.336 613.061 157.655ZM651.041 157.655C651.762 157.944 652.625 157.908 652.957 157.576C653.288 157.244 652.699 157.008 651.645 157.051C650.481 157.099 650.244 157.336 651.041 157.655ZM153.405 182.324C156.026 185.182 156.48 185.442 156.48 184.083C156.48 183.596 155.242 182.406 153.731 181.439L150.982 179.68L153.405 182.324ZM162.477 190.644C162.477 191.201 163.488 192.513 164.725 193.561L166.974 195.466L164.986 192.966C163.893 191.591 162.88 190.279 162.737 190.049C162.593 189.821 162.477 190.088 162.477 190.644ZM564.855 191.832C564.424 192.529 564.343 193.369 564.672 193.699C565.567 194.594 566.542 193.278 566.059 191.828C565.721 190.812 565.485 190.812 564.855 191.832ZM632.738 197.965C631.743 199.065 631.378 199.965 631.928 199.965C632.478 199.965 633.742 199.065 634.737 197.965C635.731 196.865 636.096 195.965 635.546 195.965C634.997 195.965 633.732 196.865 632.738 197.965ZM169.473 197.343C169.473 197.55 170.261 198.338 171.222 199.093C172.807 200.336 172.842 200.301 171.6 198.715C170.294 197.049 169.473 196.52 169.473 197.343ZM639.68 214.049C639.311 214.647 639.486 215.614 640.07 216.198C640.819 216.947 641.084 216.627 640.97 215.111C640.786 212.665 640.62 212.529 639.68 214.049ZM644.732 219.961C645.726 221.061 646.766 221.961 647.041 221.961C647.315 221.961 646.726 221.061 645.731 219.961C644.737 218.861 643.697 217.962 643.422 217.962C643.147 217.962 643.737 218.861 644.732 219.961ZM162.976 223.96C162.636 224.51 162.835 224.96 163.417 224.96C163.999 224.96 164.476 224.51 164.476 223.96C164.476 223.411 164.278 222.961 164.035 222.961C163.792 222.961 163.316 223.411 162.976 223.96ZM655.226 229.46C657.091 231.384 658.842 232.959 659.116 232.959C659.391 232.959 658.091 231.384 656.226 229.46C654.361 227.535 652.611 225.96 652.336 225.96C652.061 225.96 653.361 227.535 655.226 229.46ZM157.979 230.959C157.639 231.509 157.838 231.959 158.42 231.959C159.001 231.959 159.478 231.509 159.478 230.959C159.478 230.409 159.28 229.959 159.037 229.959C158.794 229.959 158.319 230.409 157.979 230.959ZM664.222 237.336C664.222 237.543 665.009 238.331 665.971 239.086C667.556 240.329 667.591 240.294 666.349 238.708C665.042 237.042 664.222 236.513 664.222 237.336ZM243.103 241.624C242.736 241.99 242.465 243.228 242.499 244.374C242.558 246.289 242.64 246.264 243.52 244.062C244.499 241.614 244.296 240.43 243.103 241.624ZM673.217 244.776C673.217 245.984 675.113 247.392 675.807 246.699C676.058 246.448 675.578 245.673 674.74 244.977C673.791 244.188 673.217 244.112 673.217 244.776ZM638.735 264.953C638.395 265.503 638.594 265.953 639.175 265.953C639.757 265.953 640.234 265.503 640.234 264.953C640.234 264.403 640.036 263.953 639.793 263.953C639.55 263.953 639.075 264.403 638.735 264.953ZM633.737 265.953C633.397 266.503 633.847 266.953 634.737 266.953C635.626 266.953 636.076 266.503 635.736 265.953C635.396 265.403 634.947 264.953 634.737 264.953C634.527 264.953 634.077 265.403 633.737 265.953ZM627.241 268.453C627.241 269.277 627.69 269.952 628.24 269.952C628.79 269.952 629.24 269.277 629.24 268.453C629.24 267.628 628.79 266.953 628.24 266.953C627.69 266.953 627.241 267.628 627.241 268.453ZM92.1503 324.443C91.8344 325.268 92.0113 325.943 92.5431 325.943C93.0758 325.943 93.5116 325.268 93.5116 324.443C93.5116 323.618 93.3347 322.943 93.1188 322.943C92.9029 322.943 92.4671 323.618 92.1503 324.443ZM405.353 331.819C405.353 336.712 404.92 339.054 403.854 339.94C402.628 340.958 402.355 340.894 402.355 339.588C402.355 336.764 396.376 334.658 386.543 334.02C381.419 333.687 377.034 333.608 376.798 333.845C376.561 334.081 376.368 339.373 376.368 345.606V356.937H391.36H406.353V340.94C406.353 332.141 406.128 324.943 405.853 324.943C405.578 324.943 405.353 328.037 405.353 331.819ZM303.655 327.214L298.408 328.223L298.423 340.831C298.432 347.765 298.853 354.095 299.362 354.898C300.09 356.05 303.68 356.445 316.366 356.768L332.448 357.177L332.169 343.32L331.891 329.463L322.895 327.74C312.855 325.818 311.159 325.772 303.655 327.214ZM93.5116 327.835C93.5116 328.326 94.2502 329.011 95.1517 329.358C96.524 329.885 96.586 329.738 95.5295 328.465C94.0903 326.73 93.5116 326.549 93.5116 327.835ZM342.135 331.601L339.387 332.074V344.505V356.937H355.379H371.37V345.561C371.37 336.378 371.064 333.931 369.779 332.865C368.165 331.525 347.942 330.6 342.135 331.601ZM103.506 334.941C104.331 335.474 105.456 335.91 106.005 335.91C106.555 335.91 106.33 335.474 105.505 334.941C104.681 334.408 103.556 333.972 103.007 333.972C102.457 333.972 102.682 334.408 103.506 334.941ZM110.503 338.94C111.328 339.473 112.452 339.909 113.002 339.909C113.551 339.909 113.327 339.473 112.502 338.94C111.677 338.407 110.553 337.971 110.003 337.971C109.453 337.971 109.678 338.407 110.503 338.94ZM573.309 338.69C573.331 339.103 574.68 340.998 576.307 342.902C577.934 344.805 579.265 346.943 579.265 347.651C579.265 348.36 579.715 348.938 580.264 348.938C582.024 348.938 581.347 346.881 578.096 342.353C575.2 338.319 573.206 336.794 573.309 338.69ZM127.926 364.936C127.926 378.408 128.068 383.92 128.241 377.183C128.414 370.447 128.414 359.425 128.241 352.688C128.068 345.951 127.926 351.463 127.926 364.936ZM120.311 342.623C121.032 342.912 121.894 342.876 122.226 342.544C122.558 342.212 121.968 341.976 120.915 342.019C119.75 342.067 119.513 342.304 120.311 342.623ZM91.4936 350.461C90.4371 351.734 90.4991 351.881 91.8714 351.354C92.7729 351.007 93.5116 350.322 93.5116 349.831C93.5116 348.546 92.9329 348.726 91.4936 350.461ZM675.236 356.413C674.448 357.363 674.372 357.937 675.035 357.937C676.243 357.937 677.651 356.04 676.958 355.346C676.706 355.095 675.932 355.575 675.236 356.413ZM101.665 358.937C101.665 360.311 101.892 360.874 102.169 360.186C102.447 359.5 102.447 358.375 102.169 357.687C101.892 357 101.665 357.562 101.665 358.937ZM149.651 362.686L149.483 366.935L157.729 366.92C162.265 366.911 166.573 366.525 167.304 366.061C169.216 364.85 168.387 359.532 166.222 359.122C164.721 358.837 164.611 359.165 165.458 361.392C166.332 363.691 166.15 364.109 163.897 364.966C162.495 365.499 158.929 365.935 155.975 365.935H150.604L150.211 362.186L149.819 358.437L149.651 362.686ZM178.468 359.937C177.676 360.426 177.359 361.159 177.765 361.565C178.17 361.971 179.026 361.778 179.668 361.136C181.178 359.626 180.335 358.783 178.468 359.937ZM185.465 359.937C185.465 360.486 185.888 360.936 186.405 360.936C186.923 360.936 187.624 360.486 187.964 359.937C188.303 359.387 187.88 358.937 187.023 358.937C186.167 358.937 185.465 359.387 185.465 359.937ZM175.57 363.119C175.5 365.006 176.084 365.995 177.54 366.458C180.153 367.287 191.278 366.042 192.023 364.838C192.817 363.551 185.084 363.717 183.788 365.014C181.813 366.989 177.114 365.674 176.359 362.936L175.669 360.436L175.57 363.119ZM161.477 373.934L155.98 374.608L161.727 374.771L167.474 374.934V381.876V388.816L163.226 389.199L158.978 389.582L163.726 389.756L168.474 389.931V381.433C168.474 376.759 168.137 373.007 167.724 373.097C167.311 373.187 164.501 373.563 161.477 373.934ZM175.47 381.933V389.931L180.218 389.756L184.965 389.582L180.717 389.199L176.469 388.816V381.876C176.469 375.668 176.675 374.934 178.411 374.934C180.45 374.934 183.466 378.406 183.466 380.754C183.466 381.511 184.171 383.614 185.031 385.429C186.269 388.04 187.312 388.811 190.029 389.128L193.461 389.529V382.368V375.206L188.823 374.57C186.273 374.22 182.226 373.934 179.828 373.934H175.47V381.933ZM100.74 378.933C100.74 380.858 100.946 381.645 101.197 380.683C101.449 379.721 101.449 378.145 101.197 377.183C100.946 376.222 100.74 377.008 100.74 378.933ZM149.755 379.933C149.755 382.408 149.95 383.42 150.189 382.183C150.427 380.945 150.427 378.921 150.189 377.683C149.95 376.446 149.755 377.458 149.755 379.933ZM579.182 376.341C578.953 376.565 575.921 376.974 572.443 377.249C565.511 377.799 562.843 378.933 568.481 378.933C570.429 378.933 572.525 379.538 573.138 380.276C574.136 381.479 576.08 390.753 576.577 396.68C576.691 398.032 577.427 398.93 578.421 398.93C579.625 398.93 579.924 398.341 579.514 396.774C579.127 395.296 579.314 394.842 580.106 395.333C580.954 395.856 581.264 393.354 581.264 385.991C581.264 377.18 580.752 374.807 579.182 376.341ZM644.581 383.932C644.581 388.606 644.754 390.518 644.964 388.182C645.174 385.845 645.174 382.02 644.964 379.683C644.754 377.346 644.581 379.258 644.581 383.932ZM544.552 379.626C545.524 379.88 546.873 379.863 547.55 379.589C548.227 379.315 547.431 379.108 545.782 379.128C544.133 379.148 543.579 379.372 544.552 379.626ZM537.099 380.616C537.82 380.905 538.683 380.869 539.014 380.537C539.346 380.205 538.756 379.969 537.703 380.012C536.539 380.06 536.302 380.297 537.099 380.616ZM564.632 388.931C564.632 394.155 564.801 396.293 565.007 393.681C565.213 391.068 565.213 386.795 565.007 384.182C564.801 381.57 564.632 383.707 564.632 388.931ZM648.211 393.454C647.154 394.726 647.216 394.873 648.589 394.346C649.49 393.999 650.229 393.315 650.229 392.824C650.229 391.538 649.65 391.719 648.211 393.454ZM124.796 399.929C124.796 402.954 124.983 404.191 125.211 402.679C125.44 401.167 125.44 398.692 125.211 397.18C124.983 395.668 124.796 396.905 124.796 399.929ZM71.6017 397.513C71.6497 398.678 71.8865 398.915 72.2054 398.118C72.4942 397.396 72.4583 396.533 72.1264 396.201C71.7946 395.869 71.5587 396.459 71.6017 397.513ZM142.018 397.88C141.616 398.53 141.556 399.332 141.885 399.66C142.214 399.99 153.547 400.438 167.07 400.656C180.593 400.874 192.753 401.47 194.092 401.979C195.754 402.611 197.158 402.512 198.522 401.667C200.159 400.651 200.692 400.699 201.488 401.929C202.348 403.262 202.565 403.262 203.441 401.929C203.981 401.104 204.431 400.145 204.44 399.799C204.457 399.07 190.159 398.231 162.358 397.331C147.748 396.858 142.563 396.998 142.018 397.88ZM571.538 399.622C572.51 399.876 573.86 399.859 574.536 399.586C575.213 399.312 574.417 399.105 572.768 399.125C571.119 399.145 570.565 399.369 571.538 399.622ZM552.778 400.929C551.46 401.496 551.29 401.807 552.279 401.843C553.103 401.874 554.453 401.462 555.277 400.929C557.104 399.748 555.526 399.748 552.778 400.929ZM68.2744 402.591C68.962 402.869 70.0865 402.869 70.7731 402.591C71.4608 402.314 70.8981 402.087 69.5237 402.087C68.1494 402.087 67.5877 402.314 68.2744 402.591ZM545.032 402.591C545.72 402.869 546.844 402.869 547.531 402.591C548.219 402.314 547.656 402.087 546.282 402.087C544.907 402.087 544.346 402.314 545.032 402.591ZM412.751 417.926C412.751 426.45 412.905 429.936 413.092 425.675C413.28 421.414 413.28 414.439 413.092 410.178C412.905 405.916 412.751 409.403 412.751 417.926ZM538.099 403.612C538.819 403.901 539.682 403.865 540.014 403.533C540.346 403.201 539.756 402.965 538.703 403.008C537.538 403.056 537.301 403.293 538.099 403.612ZM572.268 407.588C564.2 408.465 564.273 408.399 564.273 414.864C564.273 423.722 564.205 423.657 572.456 422.775C576.372 422.357 579.98 421.611 580.471 421.119C580.964 420.626 581.231 417.344 581.066 413.825C580.732 406.75 580.631 406.679 572.268 407.588ZM298.408 433.464C298.408 456.194 298.551 458.2 300.356 460.709C301.489 462.285 302.7 466.389 303.252 470.518C303.773 474.423 304.92 479.013 305.801 480.717C306.682 482.421 307.403 484.668 307.403 485.709C307.403 488.722 310.485 490.718 314.926 490.582C317.656 490.498 319.974 491.188 322.132 492.726L325.315 494.993L325.338 451.96L325.361 408.928H311.884H298.408V433.464ZM345.824 411.349C343.916 412.747 343.922 412.818 346.142 415.599C349.774 420.147 350.698 423.037 349.047 424.688C347.825 425.911 347.203 425.883 344.51 424.49L341.389 422.875L341.436 450.895C341.465 467.921 341.855 478.916 342.434 478.916C342.957 478.916 343.385 478.241 343.385 477.416C343.385 475.744 346.916 475.352 347.882 476.916C348.754 478.326 358.729 478.164 360.176 476.716C360.836 476.056 361.376 473.773 361.376 471.644C361.376 468.495 361.702 467.832 363.125 468.102C364.322 468.329 364.968 469.544 365.171 471.951C365.405 474.734 364.709 476.441 361.831 480.136C358.794 484.037 358.305 485.312 358.869 487.877C359.621 491.304 365.374 495.383 365.374 492.488C365.374 491.677 365.982 490.653 366.726 490.214C367.47 489.774 368.334 488.739 368.646 487.914C369.059 486.824 369.24 486.961 369.308 488.414C369.386 490.078 369.564 490.162 370.371 488.914C370.954 488.012 371.345 471.958 371.355 448.671L371.37 409.928H359.567C350.94 409.928 347.243 410.311 345.824 411.349ZM377.035 410.595C376.668 410.96 376.368 427.556 376.368 447.471C376.368 481.121 376.492 483.713 378.117 484.126C383.581 485.512 391.007 480.183 395.128 471.917C397.345 467.47 398.344 466.418 400.345 466.418C402.449 466.418 402.927 467.019 403.529 470.417C403.92 472.617 404.333 476.216 404.449 478.416C405.035 489.599 406.131 466.601 406.236 440.87L406.353 412.324L394.109 411.117C380.088 409.736 377.957 409.671 377.035 410.595ZM543.741 411.097C542.209 411.507 540.561 411.597 540.077 411.298C539.593 411 538.543 411.299 537.742 411.963C536.17 413.269 535.599 426.382 537.075 427.294C538.712 428.305 555.779 425.444 555.677 424.175C555.622 423.488 555.509 420.011 555.427 416.449L555.277 409.971L550.901 410.162C548.496 410.267 545.273 410.688 543.741 411.097ZM748.229 416.374L743.781 421.426L748.681 416.711C751.376 414.119 753.377 411.845 753.129 411.659C752.88 411.474 750.675 413.595 748.229 416.374ZM716.008 412.61C716.729 412.899 717.592 412.863 717.924 412.531C718.255 412.199 717.666 411.963 716.612 412.006C715.448 412.054 715.211 412.291 716.008 412.61ZM14.0519 415.927C14.3917 416.477 14.8675 416.926 15.1104 416.926C15.3533 416.926 15.5512 416.477 15.5512 415.927C15.5512 415.377 15.0744 414.927 14.4927 414.927C13.911 414.927 13.7121 415.377 14.0519 415.927ZM712.659 420.176L707.7 425.425L712.947 420.464C717.823 415.853 718.653 414.927 717.907 414.927C717.749 414.927 715.388 417.289 712.659 420.176ZM128.814 421.926C128.814 425.5 128.996 426.963 129.216 425.175C129.438 423.387 129.438 420.464 129.216 418.676C128.996 416.888 128.814 418.351 128.814 421.926ZM18.5496 421.304C18.5496 421.511 19.3362 422.298 20.2987 423.053C21.8839 424.296 21.9189 424.261 20.6766 422.675C19.3702 421.01 18.5496 420.481 18.5496 421.304ZM117.499 421.819C117.499 422.31 118.238 422.994 119.14 423.341C120.512 423.868 120.574 423.721 119.517 422.448C118.078 420.714 117.499 420.533 117.499 421.819ZM384.184 428.432C386.428 431.014 387.085 433.923 385.422 433.923C384.905 433.923 384.199 433.467 383.854 432.908C383.508 432.349 382.808 432.15 382.296 432.467C381.784 432.783 381.365 432.314 381.365 431.424C381.365 430.534 380.916 430.084 380.366 430.424C379.265 431.105 378.966 427.659 380.033 426.592C381.147 425.478 381.91 425.817 384.184 428.432ZM714.068 430.674C712.826 432.26 712.861 432.295 714.446 431.052C716.111 429.745 716.64 428.924 715.818 428.924C715.611 428.924 714.823 429.712 714.068 430.674ZM701.075 432.674C699.833 434.259 699.868 434.294 701.453 433.052C703.118 431.745 703.647 430.924 702.824 430.924C702.617 430.924 701.83 431.712 701.075 432.674ZM310.821 434.039C316.049 438.153 311.798 445.163 305.523 442.777C300.967 441.044 300.064 437.266 303.405 433.923C305.947 431.381 307.474 431.405 310.821 434.039ZM392.36 437.923C392.36 438.473 391.883 438.923 391.301 438.923C390.72 438.923 390.521 438.473 390.861 437.923C391.2 437.373 391.676 436.923 391.919 436.923C392.162 436.923 392.36 437.373 392.36 437.923ZM60.0286 442.922C62.7362 445.671 65.176 447.921 65.4508 447.921C65.7257 447.921 63.7357 445.671 61.0281 442.922C58.3204 440.172 55.8807 437.923 55.6058 437.923C55.331 437.923 57.3209 440.172 60.0286 442.922ZM70.5382 440.613C70.5472 441.058 70.99 442.097 71.5227 442.922C72.3573 444.215 72.4932 444.188 72.5072 442.731C72.5152 441.801 72.0725 440.762 71.5227 440.422C70.973 440.082 70.5302 440.168 70.5382 440.613ZM158.978 441.922C159.318 442.472 160.046 442.922 160.596 442.922C161.145 442.922 161.317 442.472 160.977 441.922C160.637 441.372 159.91 440.922 159.36 440.922C158.81 440.922 158.638 441.372 158.978 441.922ZM695.611 449.063C693.714 451.196 693.715 451.198 695.956 449.822C697.192 449.062 698.205 448.098 698.205 447.68C698.205 446.475 697.648 446.771 695.611 449.063ZM394.159 459.119C395.644 460.605 395.744 464.918 394.293 464.918C392.38 464.918 389.361 462.877 389.361 461.584C389.361 460.282 391.294 457.919 392.36 457.919C392.69 457.919 393.499 458.459 394.159 459.119ZM77.5197 463.859C77.5197 464.377 77.9695 465.078 78.5192 465.418C79.0689 465.758 79.5187 465.334 79.5187 464.477C79.5187 463.62 79.0689 462.918 78.5192 462.918C77.9695 462.918 77.5197 463.341 77.5197 463.859ZM571.769 463.918C571.429 464.468 571.601 464.918 572.151 464.918C572.7 464.918 573.428 464.468 573.768 463.918C574.108 463.368 573.936 462.918 573.386 462.918C572.836 462.918 572.109 463.368 571.769 463.918ZM724.004 476.599C724.725 476.888 725.588 476.852 725.919 476.52C726.251 476.188 725.662 475.952 724.608 475.995C723.444 476.043 723.207 476.28 724.004 476.599ZM27.3582 477.599C28.0788 477.888 28.9414 477.852 29.2732 477.52C29.605 477.188 29.0153 476.952 27.9619 476.995C26.7975 477.043 26.5606 477.28 27.3582 477.599ZM396.966 478.492C396.122 480.694 397.049 481.623 398.574 480.098C399.411 479.26 399.445 478.605 398.69 477.849C397.933 477.092 397.431 477.28 396.966 478.492ZM673.217 479.415C673.217 480.24 673.653 480.915 674.186 480.915C674.717 480.915 674.894 480.24 674.579 479.415C674.262 478.591 673.826 477.916 673.61 477.916C673.394 477.916 673.217 478.591 673.217 479.415ZM398.233 484.201C394.966 486.958 393.496 493.368 395.916 494.297C399.58 495.704 401.357 494.997 401.285 492.163C401.246 490.651 400.845 488.514 400.393 487.414C399.782 485.927 400.121 484.971 401.713 483.687C403.255 482.443 403.434 481.963 402.355 481.973C401.53 481.981 399.675 482.983 398.233 484.201ZM88.0733 486.382C89.1398 487.19 90.688 487.849 91.5126 487.847C92.3821 487.845 91.9624 487.243 90.5131 486.414C87.2278 484.536 85.6046 484.515 88.0733 486.382ZM354.879 486.914C355.219 487.464 355.919 487.914 356.437 487.914C356.955 487.914 357.378 487.464 357.378 486.914C357.378 486.364 356.676 485.914 355.819 485.914C354.963 485.914 354.539 486.364 354.879 486.914ZM484.861 495.134C478.855 500.086 480.333 502.17 488.781 500.659C494.997 499.545 495.979 498.681 494.563 495.572C492.874 491.863 489.037 491.69 484.861 495.134ZM702.167 496.076C701.022 498.309 701.049 498.336 702.776 496.686C703.77 495.737 704.308 494.686 703.973 494.351C703.638 494.016 702.825 494.793 702.167 496.076ZM455.232 496.527C454.072 497.925 454.146 498.093 455.777 497.777C456.813 497.576 457.849 496.85 458.076 496.162C458.67 494.379 456.817 494.617 455.232 496.527ZM461.825 495.913C462.164 496.462 462.64 496.912 462.883 496.912C463.126 496.912 463.324 496.462 463.324 495.913C463.324 495.363 462.847 494.913 462.265 494.913C461.684 494.913 461.485 495.363 461.825 495.913ZM59.5288 500.412C61.3939 502.336 63.144 503.911 63.4188 503.911C63.6937 503.911 62.3934 502.336 60.5283 500.412C58.6633 498.487 56.9132 496.912 56.6383 496.912C56.3634 496.912 57.6638 498.487 59.5288 500.412ZM440.781 497.999C440.412 498.597 440.555 499.532 441.099 500.076C442.294 501.272 450.542 499.064 449.739 497.764C448.973 496.524 441.572 496.719 440.781 497.999ZM435.113 498.47C434.37 499.214 435.37 502.911 436.316 502.911C436.725 502.911 436.845 501.786 436.582 500.412C436.071 497.737 435.974 497.609 435.113 498.47ZM637.309 500.323C636.619 501.156 636.522 501.97 637.074 502.311C637.587 502.629 638.242 501.994 638.528 500.901C639.144 498.544 638.886 498.422 637.309 500.323ZM465.001 503.156C463.65 504.145 463.356 505.189 463.86 507.2C464.653 510.359 464.891 510.406 469.763 508.37C472.648 507.164 473.379 506.351 473.133 504.621C472.754 501.957 467.846 501.074 465.001 503.156ZM445.833 504.911C444.65 506.826 446.479 507.91 450.889 507.91C454.768 507.91 455.328 507.638 455.328 505.756C455.328 503.664 455.269 503.654 453.329 505.411C451.466 507.098 451.206 507.109 449.502 505.566C447.387 503.651 446.688 503.526 445.833 504.911ZM64.5263 506.289C64.5263 506.496 65.3129 507.284 66.2754 508.038C67.8606 509.281 67.8956 509.246 66.6532 507.66C65.3469 505.995 64.5263 505.466 64.5263 506.289ZM491.182 509.66C489.939 511.246 489.974 511.281 491.559 510.038C493.225 508.731 493.753 507.91 492.931 507.91C492.724 507.91 491.936 508.698 491.182 509.66ZM439.065 511.514C438.664 511.915 438.35 513.18 438.366 514.326C438.394 516.249 438.477 516.272 439.437 514.621C440.555 512.7 440.269 510.31 439.065 511.514ZM59.3419 512.593C60.0626 512.882 60.9251 512.846 61.2569 512.514C61.5888 512.182 60.9991 511.946 59.9456 511.989C58.7812 512.037 58.5443 512.274 59.3419 512.593ZM444.308 516.474C443.773 517.885 443.334 519.217 443.334 519.435C443.334 520.415 451.854 521.993 454.099 521.429L456.601 520.801L452.84 517.356C448.336 513.228 445.648 512.951 444.308 516.474ZM450.376 516.995C450.99 518.142 451.233 519.338 450.917 519.654C450.245 520.326 446.332 516.997 446.332 515.754C446.332 514.058 449.291 514.966 450.376 516.995ZM689.459 515.989C693.152 518.141 690.692 520.91 682.962 523.304C680.633 524.025 680.737 526.582 683.148 527.873C684.212 528.442 689.497 529.352 694.892 529.894C707.568 531.167 712.466 531.97 711.778 532.66C710.722 533.715 697.685 535.832 692.017 535.868C688.888 535.888 686.037 536.377 685.681 536.954C685.245 537.659 684.525 537.581 683.483 536.715C682.328 535.756 675.916 535.388 658.335 535.271C645.355 535.185 633.949 535.323 632.988 535.578C632.026 535.831 631.239 536.894 631.239 537.937C631.239 540.001 634.678 542.368 636.257 541.391C636.795 541.059 637.235 541.154 637.235 541.601C637.235 542.049 635.848 543.03 634.152 543.781C630.77 545.279 593.94 546.019 589.208 544.685C586.954 544.049 586.547 544.34 585.71 547.184L584.762 550.403H548.531C528.604 550.403 512.299 550.65 512.299 550.953C512.299 551.255 512.79 551.994 513.39 552.595C515.756 554.961 507.702 555.886 483.813 555.993C456.317 556.116 454.612 555.772 454.13 550.016C453.886 547.088 453.45 546.442 451.83 546.604C450.73 546.714 446.457 547.144 442.334 547.56C433.197 548.482 419.599 548.505 412.849 547.611C410.101 547.247 404.367 546.65 400.106 546.283C393.457 545.711 392.36 545.838 392.36 547.182C392.36 549.004 389.197 550.119 377.41 552.448C359.289 556.029 350.856 556.021 286.414 552.361C251.294 550.366 251.431 550.385 251.431 547.461C251.431 545.988 246.369 544.639 245.172 545.793C244.196 546.735 245.399 552.902 246.559 552.902C247.04 552.902 247.433 553.335 247.433 553.863C247.433 554.786 241.557 556.663 238.438 556.737C237.613 556.757 234.465 557.034 231.442 557.354C225.511 557.98 192.928 558.197 190.462 557.627C186.817 556.783 183.779 555.508 181.367 553.809C178.977 552.127 176.849 552.017 154.88 552.435C136.917 552.777 128.657 552.526 121.573 551.422C111.101 549.79 109.302 548.859 112.411 546.681C113.552 545.88 114.774 543.789 115.125 542.032L115.763 538.839L111.884 539.335C109.75 539.608 99.6574 540.095 89.4566 540.417C70.6372 541.011 65.5258 540.396 65.5258 537.537C65.5258 535.732 67.6967 534.906 72.4373 534.906C74.4992 534.906 76.4073 534.686 76.6751 534.417C77.5037 533.589 75.9385 523.926 74.7911 522.778C74.0135 522 73.7526 522.219 73.8645 523.551C73.9865 524.99 73.2359 525.469 70.5232 525.681C56.0996 526.811 29.0723 530.464 19.5521 532.572C2.24592 536.404 -2.01693 539.35 0.797645 545.529C6.22889 557.454 69.04 567.532 177.469 573.878C294.313 580.716 495.964 579.248 597.256 570.822C626.808 568.364 644.191 566.771 650.729 565.923C654.577 565.423 662.448 564.487 668.22 563.843C709.275 559.256 750.74 549.256 757.194 542.384C760.28 539.097 760.155 533.169 756.947 530.7C754.331 528.688 743.261 524.881 731.688 522.016C709.91 516.624 684.268 512.965 689.459 515.989ZM52.2825 517.571C52.9702 517.849 54.0946 517.849 54.7812 517.571C55.4689 517.294 54.9062 517.067 53.5319 517.067C52.1576 517.067 51.5959 517.294 52.2825 517.571ZM62.0276 517.909C61.6877 518.459 62.1375 518.908 63.027 518.908C63.9166 518.908 64.3664 518.459 64.0265 517.909C63.6867 517.359 63.2369 516.909 63.027 516.909C62.8172 516.909 62.3674 517.359 62.0276 517.909ZM68.7931 519.601C69.7656 519.855 71.1149 519.838 71.7916 519.564C72.4682 519.29 71.6727 519.083 70.0235 519.103C68.3743 519.123 67.8206 519.347 68.7931 519.601ZM289.662 520.597C290.623 520.849 292.199 520.849 293.16 520.597C294.122 520.346 293.335 520.14 291.411 520.14C289.487 520.14 288.7 520.346 289.662 520.597ZM302.156 521.57C302.843 521.848 303.968 521.848 304.654 521.57C305.342 521.293 304.779 521.066 303.405 521.066C302.031 521.066 301.469 521.293 302.156 521.57ZM320.209 522.591C320.93 522.88 321.793 522.844 322.124 522.512C322.456 522.18 321.867 521.944 320.813 521.987C319.649 522.035 319.412 522.272 320.209 522.591ZM476.91 523.158C478.551 526.044 480.744 527.907 482.5 527.907C484.885 527.907 485.912 525.335 484.302 523.395C482.757 521.531 475.859 521.31 476.91 523.158ZM330.891 523.829C331.99 524.266 336.938 524.866 341.885 525.165C346.833 525.463 349.756 525.471 348.382 525.182C346.046 524.692 346.013 524.605 347.882 523.854C349.082 523.37 345.686 523.046 339.387 523.042C333.197 523.038 329.712 523.361 330.891 523.829ZM456.577 523.57C454.918 524.24 454.974 527.834 456.655 528.479C458.63 529.238 463.324 527.168 463.324 525.539C463.324 523.383 459.678 522.319 456.577 523.57ZM465.544 524.072C466.23 526.13 469.732 527.889 471.262 526.943C472.445 526.211 472.466 525.789 471.383 524.483C469.868 522.659 464.958 522.312 465.544 524.072ZM366.373 525.065C373.828 527.098 374.677 527.214 373.997 526.114C373.574 525.429 374.717 524.885 377.097 524.637C379.17 524.42 376.818 524.215 371.87 524.178C364.463 524.124 363.492 524.281 366.373 525.065ZM428.872 525.2C428.444 526.186 428.376 527.274 428.717 527.617C429.733 528.632 430.551 527.206 430.084 525.235C429.67 523.489 429.616 523.488 428.872 525.2ZM494.378 525.324L491.95 526.67L495.079 528.288C501.231 531.47 509.558 529.333 506.302 525.407C504.746 523.532 497.701 523.483 494.378 525.324ZM285.683 525.6C286.656 525.854 288.005 525.837 288.681 525.563C289.358 525.289 288.563 525.082 286.913 525.102C285.264 525.122 284.71 525.346 285.683 525.6ZM307.153 526.613C308.39 526.851 310.413 526.851 311.651 526.613C312.888 526.374 311.876 526.179 309.402 526.179C306.928 526.179 305.916 526.374 307.153 526.613ZM79.5337 527.598C79.5427 528.043 79.9854 529.082 80.5182 529.907C81.3527 531.199 81.4887 531.172 81.5027 529.716C81.5107 528.786 81.0679 527.747 80.5182 527.407C79.9684 527.067 79.5257 527.153 79.5337 527.598ZM332.14 527.613C333.378 527.851 335.401 527.851 336.638 527.613C337.875 527.374 336.863 527.179 334.389 527.179C331.916 527.179 330.903 527.374 332.14 527.613ZM381.178 527.59C381.899 527.879 382.762 527.843 383.094 527.511C383.425 527.179 382.836 526.943 381.782 526.986C380.618 527.034 380.381 527.271 381.178 527.59ZM511.299 529.819C511.299 530.869 511.862 531.59 512.549 531.42C519.1 529.802 520.313 527.907 514.798 527.907C512.02 527.907 511.299 528.301 511.299 529.819ZM254.43 536.266V543.813L257.678 544.368C262.682 545.223 327.286 548.903 337.278 548.903C346.695 548.903 347.919 548.36 348.536 543.911C348.823 541.845 350.284 540.817 357.054 537.912C361.548 535.983 365.523 534.104 365.887 533.736C366.25 533.367 359.649 533.01 351.218 532.942C342.787 532.874 333.19 532.649 329.892 532.44C326.593 532.231 316.473 531.746 307.403 531.362C288.367 530.555 285.569 530.42 267.673 529.442L254.43 528.719V536.266ZM493.511 540.036C489.852 541.092 488.266 543.628 490.414 544.99C492.697 546.436 494.462 546.031 495.01 543.937C495.292 542.855 496.381 541.698 497.428 541.366C498.477 541.033 499.077 540.343 498.762 539.833C498.098 538.76 497.91 538.767 493.511 540.036Z" fill="#ECB24E"/>
</svg>
